<?xml version="1.0" encoding="UTF-8" standalone="no"?>
<!DOCTYPE svg PUBLIC "-//W3C//DTD SVG 1.1//EN" "http://www.w3.org/Graphics/SVG/1.1/DTD/svg11.dtd">
<svg width="100%" height="100%" viewBox="0 0 169 169" version="1.1" xmlns="http://www.w3.org/2000/svg" xmlns:xlink="http://www.w3.org/1999/xlink" xml:space="preserve" xmlns:serif="http://www.serif.com/" style="fill-rule:evenodd;clip-rule:evenodd;stroke-linejoin:round;stroke-miterlimit:2;">
    <path d="M17.576,72.414C23.291,40.646 51.1,16.507 84.5,16.507C117.9,16.507 145.728,40.647 151.423,72.414C139.04,52.896 113.716,39.505 84.5,39.505C55.283,39.505 29.96,52.895 17.577,72.414L17.576,72.414Z" style="fill-opacity:0.25;"/>
    <path d="M84.503,0.006C37.868,0.006 -0.002,37.877 -0.002,84.512C-0.002,131.147 37.868,169.018 84.503,169.018C131.138,169.018 169.009,131.147 169.009,84.512C169.009,37.877 131.138,0.006 84.503,0.006ZM84.503,7.018C127.273,7.018 161.998,41.741 161.998,84.512C161.998,127.282 127.274,162.007 84.503,162.007C41.733,162.007 7.009,127.283 7.009,84.512C7.009,41.742 41.733,7.018 84.503,7.018Z"/>
    <path d="M43.79,138.96C55.407,137.402 69.425,136.506 84.499,136.506C99.573,136.506 113.591,137.402 125.207,138.959C113.469,147.77 99.177,152.526 84.5,152.505C69.822,152.527 55.529,147.771 43.79,138.96Z"/>
    <path d="M25.797,118.814C26.303,118.514 26.814,118.222 27.329,117.938C40.229,110.907 61.059,106.506 84.499,106.506C107.939,106.506 128.789,110.906 141.669,117.938C142.207,118.226 142.704,118.518 143.201,118.814C140.181,123.984 136.491,128.732 132.227,132.936C119.244,130.793 102.617,129.507 84.499,129.507C66.381,129.507 49.754,130.793 36.792,132.936C32.516,128.738 28.818,123.989 25.797,118.814Z"/>
    <path d="M19.316,103.904C21.386,100.084 24.513,96.544 28.406,93.354C41.057,83.014 61.515,76.505 84.499,76.505C107.483,76.505 127.941,83.013 140.592,93.354C144.485,96.544 147.612,100.084 149.682,103.904C148.803,106.873 147.717,109.776 146.432,112.592C132.931,104.692 110.216,99.506 84.499,99.506C58.782,99.506 36.088,104.693 22.567,112.592C21.282,109.776 20.195,106.872 19.316,103.904Z" style="fill-opacity:0.75;"/>
    <path d="M17.017,92.905C21.18,66.409 50.147,46.506 84.5,46.506C118.853,46.506 147.82,66.409 151.982,92.905C151.917,93.466 151.841,94.026 151.754,94.584C139.496,79.727 113.965,69.506 84.5,69.506C55.035,69.506 29.504,79.727 17.246,94.584C17.163,94.024 17.08,93.466 17.018,92.904L17.017,92.905Z" style="fill-opacity:0.5;"/>
</svg>
